<mxfile host="app.diagrams.net" modified="2024-02-09T19:56:41.959Z" agent="Mozilla/5.0 (Windows NT 10.0; Win64; x64) AppleWebKit/537.36 (KHTML, like Gecko) Chrome/101.0.0.0 Safari/537.36" etag="ScAJutGaplTKZiG2pJLr" version="23.1.2" type="google">
  <diagram name="Page-1" id="nnejAGaV3I25czRuqESr">
    <mxGraphModel grid="1" page="1" gridSize="10" guides="1" tooltips="1" connect="1" arrows="1" fold="1" pageScale="1" pageWidth="850" pageHeight="1100" math="0" shadow="0">
      <root>
        <mxCell id="0" />
        <mxCell id="1" parent="0" />
        <mxCell id="GPuY_ArK0wNWbEicc758-27" style="rounded=0;orthogonalLoop=1;jettySize=auto;html=1;entryX=1;entryY=1;entryDx=0;entryDy=0;shape=link;fillColor=#f8cecc;strokeColor=#b85450;width=7;" edge="1" parent="1">
          <mxGeometry relative="1" as="geometry">
            <mxPoint x="636.9" y="460" as="sourcePoint" />
            <mxPoint x="430.00344827586207" y="351.6120689655172" as="targetPoint" />
            <Array as="points">
              <mxPoint x="510" y="460" />
            </Array>
          </mxGeometry>
        </mxCell>
        <mxCell id="GPuY_ArK0wNWbEicc758-28" value="8. Send response action" style="edgeLabel;html=1;align=center;verticalAlign=middle;resizable=0;points=[];" connectable="0" vertex="1" parent="GPuY_ArK0wNWbEicc758-27">
          <mxGeometry x="-0.2229" relative="1" as="geometry">
            <mxPoint as="offset" />
          </mxGeometry>
        </mxCell>
        <mxCell id="GPuY_ArK0wNWbEicc758-1" value="SOC Analyst&lt;br&gt;" style="fontColor=#0066CC;verticalAlign=top;verticalLabelPosition=bottom;labelPosition=center;align=center;html=1;outlineConnect=0;fillColor=#CCCCCC;strokeColor=#6881B3;gradientColor=none;gradientDirection=north;strokeWidth=2;shape=mxgraph.networks.pc;" vertex="1" parent="1">
          <mxGeometry x="650" y="430" width="100" height="70" as="geometry" />
        </mxCell>
        <mxCell id="GPuY_ArK0wNWbEicc758-10" style="edgeStyle=orthogonalEdgeStyle;rounded=0;orthogonalLoop=1;jettySize=auto;html=1;entryX=1;entryY=0.5;entryDx=0;entryDy=0;shape=link;" edge="1" parent="1" source="GPuY_ArK0wNWbEicc758-2" target="GPuY_ArK0wNWbEicc758-6">
          <mxGeometry relative="1" as="geometry" />
        </mxCell>
        <mxCell id="GPuY_ArK0wNWbEicc758-11" value="2.Receive Events" style="edgeLabel;html=1;align=center;verticalAlign=middle;resizable=0;points=[];" connectable="0" vertex="1" parent="GPuY_ArK0wNWbEicc758-10">
          <mxGeometry x="0.1563" y="4" relative="1" as="geometry">
            <mxPoint as="offset" />
          </mxGeometry>
        </mxCell>
        <mxCell id="GPuY_ArK0wNWbEicc758-23" style="rounded=0;orthogonalLoop=1;jettySize=auto;html=1;shape=link;fillColor=#ffe6cc;strokeColor=#d79b00;" edge="1" parent="1" source="GPuY_ArK0wNWbEicc758-2" target="GPuY_ArK0wNWbEicc758-1">
          <mxGeometry relative="1" as="geometry" />
        </mxCell>
        <mxCell id="GPuY_ArK0wNWbEicc758-24" value="7. Send &amp;amp; Receive Email" style="edgeLabel;html=1;align=center;verticalAlign=middle;resizable=0;points=[];" connectable="0" vertex="1" parent="GPuY_ArK0wNWbEicc758-23">
          <mxGeometry x="0.2769" y="-4" relative="1" as="geometry">
            <mxPoint as="offset" />
          </mxGeometry>
        </mxCell>
        <mxCell id="GPuY_ArK0wNWbEicc758-29" style="rounded=0;orthogonalLoop=1;jettySize=auto;html=1;entryX=0;entryY=0.75;entryDx=0;entryDy=0;shape=link;fillColor=#f8cecc;strokeColor=#b85450;" edge="1" parent="1" source="GPuY_ArK0wNWbEicc758-2" target="GPuY_ArK0wNWbEicc758-4">
          <mxGeometry relative="1" as="geometry">
            <Array as="points">
              <mxPoint x="370" y="290" />
            </Array>
          </mxGeometry>
        </mxCell>
        <mxCell id="GPuY_ArK0wNWbEicc758-2" value="Internet" style="image;aspect=fixed;perimeter=ellipsePerimeter;html=1;align=center;shadow=0;dashed=0;spacingTop=3;image=img/lib/active_directory/internet_cloud.svg;" vertex="1" parent="1">
          <mxGeometry x="400" y="330" width="50" height="31.5" as="geometry" />
        </mxCell>
        <mxCell id="GPuY_ArK0wNWbEicc758-9" style="edgeStyle=orthogonalEdgeStyle;rounded=0;orthogonalLoop=1;jettySize=auto;html=1;entryX=0.5;entryY=1;entryDx=0;entryDy=0;shape=link;" edge="1" parent="1" source="GPuY_ArK0wNWbEicc758-3" target="GPuY_ArK0wNWbEicc758-2">
          <mxGeometry relative="1" as="geometry">
            <Array as="points">
              <mxPoint x="425" y="380" />
              <mxPoint x="425" y="380" />
            </Array>
          </mxGeometry>
        </mxCell>
        <mxCell id="GPuY_ArK0wNWbEicc758-3" value="Router&lt;br&gt;" style="sketch=0;points=[[0.5,0,0],[1,0.5,0],[0.5,1,0],[0,0.5,0],[0.145,0.145,0],[0.8555,0.145,0],[0.855,0.8555,0],[0.145,0.855,0]];verticalLabelPosition=bottom;html=1;verticalAlign=top;aspect=fixed;align=center;pointerEvents=1;shape=mxgraph.cisco19.rect;prIcon=router;fillColor=#FAFAFA;strokeColor=#005073;" vertex="1" parent="1">
          <mxGeometry x="400" y="460" width="50" height="50" as="geometry" />
        </mxCell>
        <mxCell id="GPuY_ArK0wNWbEicc758-17" style="edgeStyle=orthogonalEdgeStyle;rounded=0;orthogonalLoop=1;jettySize=auto;html=1;entryX=0.5;entryY=0;entryDx=0;entryDy=0;shape=link;fillColor=#d5e8d4;strokeColor=#82b366;" edge="1" parent="1" source="GPuY_ArK0wNWbEicc758-4" target="GPuY_ArK0wNWbEicc758-2">
          <mxGeometry relative="1" as="geometry" />
        </mxCell>
        <mxCell id="GPuY_ArK0wNWbEicc758-18" value="4.Enrich IOCs" style="edgeLabel;html=1;align=center;verticalAlign=middle;resizable=0;points=[];" connectable="0" vertex="1" parent="GPuY_ArK0wNWbEicc758-17">
          <mxGeometry x="0.0328" relative="1" as="geometry">
            <mxPoint as="offset" />
          </mxGeometry>
        </mxCell>
        <mxCell id="GPuY_ArK0wNWbEicc758-19" style="rounded=0;orthogonalLoop=1;jettySize=auto;html=1;entryX=0.5;entryY=0;entryDx=0;entryDy=0;shape=link;fillColor=#dae8fc;strokeColor=#6c8ebf;" edge="1" parent="1" source="GPuY_ArK0wNWbEicc758-4" target="GPuY_ArK0wNWbEicc758-5">
          <mxGeometry relative="1" as="geometry" />
        </mxCell>
        <mxCell id="GPuY_ArK0wNWbEicc758-20" value="5. Send Alerts" style="edgeLabel;html=1;align=center;verticalAlign=middle;resizable=0;points=[];" connectable="0" vertex="1" parent="GPuY_ArK0wNWbEicc758-19">
          <mxGeometry x="0.26" y="3" relative="1" as="geometry">
            <mxPoint as="offset" />
          </mxGeometry>
        </mxCell>
        <mxCell id="GPuY_ArK0wNWbEicc758-21" style="rounded=0;orthogonalLoop=1;jettySize=auto;html=1;entryX=1;entryY=0.5;entryDx=0;entryDy=0;fillColor=#ffe6cc;strokeColor=#d79b00;shape=link;" edge="1" parent="1" source="GPuY_ArK0wNWbEicc758-4" target="GPuY_ArK0wNWbEicc758-2">
          <mxGeometry relative="1" as="geometry">
            <Array as="points">
              <mxPoint x="480" y="300" />
            </Array>
          </mxGeometry>
        </mxCell>
        <mxCell id="GPuY_ArK0wNWbEicc758-22" value="6. Send Email" style="edgeLabel;html=1;align=center;verticalAlign=middle;resizable=0;points=[];" connectable="0" vertex="1" parent="GPuY_ArK0wNWbEicc758-21">
          <mxGeometry x="0.5322" y="2" relative="1" as="geometry">
            <mxPoint as="offset" />
          </mxGeometry>
        </mxCell>
        <mxCell id="GPuY_ArK0wNWbEicc758-30" style="edgeStyle=orthogonalEdgeStyle;rounded=0;orthogonalLoop=1;jettySize=auto;html=1;entryX=0.25;entryY=0;entryDx=0;entryDy=0;fillColor=#f8cecc;strokeColor=#b85450;shape=link;" edge="1" parent="1" source="GPuY_ArK0wNWbEicc758-4" target="GPuY_ArK0wNWbEicc758-6">
          <mxGeometry relative="1" as="geometry" />
        </mxCell>
        <mxCell id="GPuY_ArK0wNWbEicc758-31" value="8. Send Responsive action" style="edgeLabel;html=1;align=center;verticalAlign=middle;resizable=0;points=[];" connectable="0" vertex="1" parent="GPuY_ArK0wNWbEicc758-30">
          <mxGeometry x="0.059" y="6" relative="1" as="geometry">
            <mxPoint as="offset" />
          </mxGeometry>
        </mxCell>
        <mxCell id="GPuY_ArK0wNWbEicc758-4" value="Shuffle&lt;br&gt;" style="image;aspect=fixed;perimeter=ellipsePerimeter;html=1;align=center;shadow=0;dashed=0;spacingTop=3;image=img/lib/active_directory/internet_cloud.svg;" vertex="1" parent="1">
          <mxGeometry x="400" y="210" width="50" height="31.5" as="geometry" />
        </mxCell>
        <mxCell id="GPuY_ArK0wNWbEicc758-5" value="TheHive&lt;br&gt;" style="image;aspect=fixed;perimeter=ellipsePerimeter;html=1;align=center;shadow=0;dashed=0;spacingTop=3;image=img/lib/active_directory/internet_cloud.svg;" vertex="1" parent="1">
          <mxGeometry x="560" y="320" width="50" height="31.5" as="geometry" />
        </mxCell>
        <mxCell id="GPuY_ArK0wNWbEicc758-15" style="rounded=0;orthogonalLoop=1;jettySize=auto;html=1;entryX=0;entryY=0.5;entryDx=0;entryDy=0;shape=link;fillColor=#dae8fc;strokeColor=#6c8ebf;" edge="1" parent="1" source="GPuY_ArK0wNWbEicc758-6" target="GPuY_ArK0wNWbEicc758-4">
          <mxGeometry relative="1" as="geometry" />
        </mxCell>
        <mxCell id="GPuY_ArK0wNWbEicc758-16" value="3. Send Alerts" style="edgeLabel;html=1;align=center;verticalAlign=middle;resizable=0;points=[];" connectable="0" vertex="1" parent="GPuY_ArK0wNWbEicc758-15">
          <mxGeometry x="0.1292" y="-3" relative="1" as="geometry">
            <mxPoint as="offset" />
          </mxGeometry>
        </mxCell>
        <mxCell id="GPuY_ArK0wNWbEicc758-6" value="Wazuh Manager" style="image;aspect=fixed;perimeter=ellipsePerimeter;html=1;align=center;shadow=0;dashed=0;spacingTop=3;image=img/lib/active_directory/internet_cloud.svg;" vertex="1" parent="1">
          <mxGeometry x="170" y="330" width="50" height="31.5" as="geometry" />
        </mxCell>
        <mxCell id="GPuY_ArK0wNWbEicc758-7" value="Windows 10 Client Wazuh Agent&lt;br&gt;" style="fontColor=#0066CC;verticalAlign=top;verticalLabelPosition=bottom;labelPosition=center;align=center;html=1;outlineConnect=0;fillColor=#CCCCCC;strokeColor=#6881B3;gradientColor=none;gradientDirection=north;strokeWidth=2;shape=mxgraph.networks.pc;" vertex="1" parent="1">
          <mxGeometry x="375" y="600" width="100" height="70" as="geometry" />
        </mxCell>
        <mxCell id="GPuY_ArK0wNWbEicc758-8" style="edgeStyle=orthogonalEdgeStyle;rounded=0;orthogonalLoop=1;jettySize=auto;html=1;entryX=0.5;entryY=1;entryDx=0;entryDy=0;entryPerimeter=0;startArrow=classic;startFill=1;shape=link;" edge="1" parent="1" source="GPuY_ArK0wNWbEicc758-7" target="GPuY_ArK0wNWbEicc758-3">
          <mxGeometry relative="1" as="geometry" />
        </mxCell>
        <mxCell id="GPuY_ArK0wNWbEicc758-14" value="1. Send Events" style="edgeLabel;html=1;align=center;verticalAlign=middle;resizable=0;points=[];" connectable="0" vertex="1" parent="GPuY_ArK0wNWbEicc758-8">
          <mxGeometry x="-0.0933" y="-3" relative="1" as="geometry">
            <mxPoint as="offset" />
          </mxGeometry>
        </mxCell>
        <mxCell id="GPuY_ArK0wNWbEicc758-32" style="rounded=0;orthogonalLoop=1;jettySize=auto;html=1;entryX=0;entryY=0.5;entryDx=0;entryDy=0;entryPerimeter=0;fillColor=#f8cecc;strokeColor=#b85450;shape=link;" edge="1" parent="1" source="GPuY_ArK0wNWbEicc758-6" target="GPuY_ArK0wNWbEicc758-7">
          <mxGeometry relative="1" as="geometry" />
        </mxCell>
        <mxCell id="GPuY_ArK0wNWbEicc758-33" value="8. Perform Responsive ACtion" style="edgeLabel;html=1;align=center;verticalAlign=middle;resizable=0;points=[];" connectable="0" vertex="1" parent="GPuY_ArK0wNWbEicc758-32">
          <mxGeometry x="-0.1808" y="-4" relative="1" as="geometry">
            <mxPoint y="1" as="offset" />
          </mxGeometry>
        </mxCell>
        <mxCell id="GPuY_ArK0wNWbEicc758-40" style="edgeStyle=orthogonalEdgeStyle;rounded=0;orthogonalLoop=1;jettySize=auto;html=1;" edge="1" parent="1" source="GPuY_ArK0wNWbEicc758-34" target="GPuY_ArK0wNWbEicc758-35">
          <mxGeometry relative="1" as="geometry" />
        </mxCell>
        <mxCell id="GPuY_ArK0wNWbEicc758-34" value="Windows 10&lt;br&gt;Send Events" style="text;html=1;align=center;verticalAlign=middle;resizable=0;points=[];autosize=1;strokeColor=none;fillColor=none;" vertex="1" parent="1">
          <mxGeometry x="-10" y="813" width="90" height="40" as="geometry" />
        </mxCell>
        <mxCell id="GPuY_ArK0wNWbEicc758-41" style="edgeStyle=orthogonalEdgeStyle;rounded=0;orthogonalLoop=1;jettySize=auto;html=1;" edge="1" parent="1" source="GPuY_ArK0wNWbEicc758-35" target="GPuY_ArK0wNWbEicc758-36">
          <mxGeometry relative="1" as="geometry" />
        </mxCell>
        <mxCell id="GPuY_ArK0wNWbEicc758-35" value="Wazuh Mnager&lt;br&gt;Trigger alerts &amp;amp; Perform response actions" style="text;html=1;align=center;verticalAlign=middle;resizable=0;points=[];autosize=1;strokeColor=none;fillColor=none;" vertex="1" parent="1">
          <mxGeometry x="100" y="813" width="250" height="40" as="geometry" />
        </mxCell>
        <mxCell id="GPuY_ArK0wNWbEicc758-44" style="edgeStyle=orthogonalEdgeStyle;rounded=0;orthogonalLoop=1;jettySize=auto;html=1;" edge="1" parent="1" source="GPuY_ArK0wNWbEicc758-36" target="GPuY_ArK0wNWbEicc758-39">
          <mxGeometry relative="1" as="geometry" />
        </mxCell>
        <mxCell id="GPuY_ArK0wNWbEicc758-36" value="Shuffle&lt;br&gt;Receive Wazuh Alerts &amp;amp; Send responsive actions" style="text;html=1;align=center;verticalAlign=middle;resizable=0;points=[];autosize=1;strokeColor=none;fillColor=none;" vertex="1" parent="1">
          <mxGeometry x="360" y="813" width="290" height="40" as="geometry" />
        </mxCell>
        <mxCell id="GPuY_ArK0wNWbEicc758-37" value="OSINT&lt;br&gt;Enrich IOCs" style="text;html=1;align=center;verticalAlign=middle;resizable=0;points=[];autosize=1;strokeColor=none;fillColor=none;" vertex="1" parent="1">
          <mxGeometry x="455" y="723" width="90" height="40" as="geometry" />
        </mxCell>
        <mxCell id="GPuY_ArK0wNWbEicc758-38" value="TheHive&lt;br&gt;Create alert in case maangement" style="text;html=1;align=center;verticalAlign=middle;resizable=0;points=[];autosize=1;strokeColor=none;fillColor=none;" vertex="1" parent="1">
          <mxGeometry x="400" y="913" width="200" height="40" as="geometry" />
        </mxCell>
        <mxCell id="GPuY_ArK0wNWbEicc758-39" value="Email&lt;br&gt;Send email &amp;amp; responsive action" style="text;html=1;align=center;verticalAlign=middle;resizable=0;points=[];autosize=1;strokeColor=none;fillColor=none;" vertex="1" parent="1">
          <mxGeometry x="660" y="813" width="190" height="40" as="geometry" />
        </mxCell>
        <mxCell id="GPuY_ArK0wNWbEicc758-42" style="edgeStyle=orthogonalEdgeStyle;rounded=0;orthogonalLoop=1;jettySize=auto;html=1;entryX=0.544;entryY=0.975;entryDx=0;entryDy=0;entryPerimeter=0;" edge="1" parent="1" source="GPuY_ArK0wNWbEicc758-36" target="GPuY_ArK0wNWbEicc758-37">
          <mxGeometry relative="1" as="geometry" />
        </mxCell>
        <mxCell id="GPuY_ArK0wNWbEicc758-43" style="edgeStyle=orthogonalEdgeStyle;rounded=0;orthogonalLoop=1;jettySize=auto;html=1;entryX=0.522;entryY=0.125;entryDx=0;entryDy=0;entryPerimeter=0;" edge="1" parent="1" source="GPuY_ArK0wNWbEicc758-36" target="GPuY_ArK0wNWbEicc758-38">
          <mxGeometry relative="1" as="geometry" />
        </mxCell>
      </root>
    </mxGraphModel>
  </diagram>
</mxfile>
